#!OML:ASF I:\Random Stuff\random\construction\7_22_03\Session 2\subj1.ASF
:FULLY-SPECIFIED
:DEGREES
598
root -10.7636 17.6843 -0.903843 1.76075 58.4746 -5.37682
lowerback 5.66385 1.1553 -2.20036
upperback -1.74046 1.41194 0.740978
thorax -5.05695 0.780824 1.86299
lowerneck -19.6924 -8.36504 -7.86606
upperneck 25.7599 -11.7198 8.39513
head 12.8752 -4.82041 2.50593
rclavicle -8.00854e-014 -5.56597e-015
rhumerus -39.8665 -1.04099 -77.7321
rradius 31.8006
rwrist 7.46355
rhand -15.5201 21.5363
rfingers 7.12502
rthumb 10.6631 -8.17308
lclavicle -8.00854e-014 -5.56597e-015
lhumerus -34.0405 -8.25988 88.5104
lradius 40.2572
lwrist 31.4318
lhand -16.2269 57.2758
lfingers 7.12502
lthumb -170.019 -452.981
rfemur 2.57503 5.81411 22.6305
rtibia 11.9524
rfoot -9.86903 -14.7768
rtoes -20.722
lfemur -20.0495 -4.5087 -16.3764
ltibia 25.0843
lfoot -11.0818 11.3509
ltoes -23.4754
599
root -10.8782 17.669 -0.906662 2.32497 58.0732 -4.85688
lowerback 5.44587 1.4227 -1.8344
upperback -1.74409 1.79197 0.557065
thorax -4.93757 0.953592 1.43299
lowerneck -19.921 -8.18742 -7.8734
upperneck 25.9813 -11.3872 8.15641
head 12.9601 -4.69355 2.47412
rclavicle -5.65542e-014 -8.74653e-015
rhumerus -39.7373 -0.669513 -78.2371
rradius 31.7622
rwrist 7.43096
rhand -14.1026 21.8033
rfingers 7.12502
rthumb 12.0302 -7.8309
lclavicle -5.65542e-014 -8.74653e-015
lhumerus -33.8751 -7.6077 88.3256
lradius 40.8916
lwrist 30.8034
lhand -16.1266 56.7389
lfingers 7.12502
lthumb -169.922 -453.522
rfemur 5.15169 6.34068 22.6657
rtibia 6.11037
rfoot -8.85734 -15.0191
rtoes -19.3778
lfemur -20.6572 -4.7335 -16.3077
ltibia 25.4724
lfoot -10.9309 11.8365
ltoes -23.9885
600
root -11.0012 17.6519 -0.914621 2.68066 57.5624 -4.5983
lowerback 5.2969 1.70495 -1.31058
upperback -1.7242 2.20319 0.426077
thorax -4.8226 1.13849 0.968114
lowerneck -20.5452 -7.96588 -7.60122
upperneck 26.178 -10.9578 7.58383
head 13.0639 -4.53275 2.27356
rclavicle 3.08862e-014 -3.97569e-015
rhumerus -39.5552 0.0613416 -78.908
rradius 31.9177
rwrist 7.22512
rhand -14.8404 20.6709
rfingers 7.12502
rthumb 11.3187 -9.00371
lclavicle 3.08862e-014 -3.97569e-015
lhumerus -33.671 -6.16679 87.8941
lradius 41.5607
lwrist 29.9712
lhand -15.8641 55.9982
lfingers 7.12502
lthumb -169.669 -454.276
rfemur 7.715 6.96233 22.8699
rtibia -2.06736e-014
rfoot -6.90298 -15.6004
rtoes -18.1891
lfemur -21.2632 -5.18055 -16.0344
ltibia 25.811
lfoot -10.7561 12.6752
ltoes -24.5199
601
root -11.1355 17.634 -0.929029 2.89556 56.9238 -4.58295
lowerback 5.20187 1.97921 -0.705294
upperback -1.69227 2.61139 0.383134
thorax -4.71709 1.32181 0.550341
lowerneck -20.5949 -7.66848 -7.49064
upperneck 25.8418 -10.4201 7.20957
head 12.8529 -4.3452 2.20849
rclavicle -8.42102e-014 -1.59028e-014
rhumerus -39.3268 1.26169 -79.6937
rradius 32.3275
rwrist 6.74056
rhand -15.4461 20.2378
rfingers 7.12502
rthumb 10.7345 -9.46796
lclavicle -8.42102e-014 -1.59028e-014
lhumerus -33.5362 -4.06105 87.3425
lradius 42.4128
lwrist 29.3748
lhand -15.5458 55.4946
lfingers 7.12502
lthumb -169.362 -454.795
rfemur 7.08173 7.7323 23.2071
rtibia -9.54166e-015
rfoot -7.62427 -16.8115
rtoes -17.443
lfemur -21.9526 -5.73955 -15.5561
ltibia 26.1231
lfoot -10.5537 13.8019
ltoes -24.8378
602
root -11.2754 17.6271 -0.948927 2.93279 56.2673 -4.75654
lowerback 5.24639 2.24509 0.0401896
upperback -1.6386 3.01807 0.370965
thorax -4.65368 1.50145 0.0833587
lowerneck -20.7514 -7.29907 -7.22399
upperneck 25.5203 -9.78116 6.66838
head 12.6459 -4.11569 2.06973
rclavicle -3.81294e-014 7.7526e-015
rhumerus -38.9731 2.09874 -80.2256
rradius 32.692
rwrist 6.67174
rhand -15.5289 19.9007
rfingers 7.12502
rthumb 10.6546 -9.80915
lclavicle -3.81294e-014 7.7526e-015
lhumerus -33.4845 -1.82548 86.7815
lradius 43.5334
lwrist 29.4431
lhand -15.6007 55.8245
lfingers 7.12502
lthumb -169.415 -454.462
rfemur 6.46333 8.53415 23.5853
rtibia 7.95139e-015
rfoot -8.2658 -17.5213
rtoes -16.0559
lfemur -22.5798 -6.44393 -14.9152
ltibia 26.3164
lfoot -10.3177 15.0965
ltoes -24.5096
603
root -11.4174 17.6247 -0.969501 2.90133 55.629 -4.95868
lowerback 5.3937 2.50028 0.854596
upperback -1.57292 3.41606 0.346915
thorax -4.62119 1.67512 -0.436745
lowerneck -20.9644 -6.93076 -6.79529
upperneck 25.2128 -9.14686 5.93605
head 12.4442 -3.89535 1.82965
rclavicle -6.75992e-014 -1.59028e-015
rhumerus -38.472 2.31598 -80.4672
rradius 32.9056
rwrist 7.22555
rhand -15.5153 19.6747
rfingers 7.12502
rthumb 10.6677 -10.0345
lclavicle -6.75992e-014 -1.59028e-015
lhumerus -33.4497 0.20788 86.2397
lradius 44.5177
lwrist 29.9499
lhand -16.1132 56.3775
lfingers 7.12502
lthumb -169.909 -453.884
rfemur 5.88556 9.32406 23.9312
rtibia -1.74931e-014
rfoot -8.56035 -17.7722
rtoes -14.5847
lfemur -23.0806 -7.41833 -14.1772
ltibia 26.3434
lfoot -10.1634 16.5563
ltoes -23.5764
604
root -11.5636 17.6299 -0.989861 3.04217 55.0641 -4.93248
lowerback 5.60333 2.69893 1.50903
upperback -1.47666 3.72985 0.330133
thorax -4.5938 1.81226 -0.854611
lowerneck -21.2849 -6.56102 -6.53269
upperneck 25.0096 -8.51828 5.3996
head 12.336 -3.66234 1.68819
rclavicle 6.71519e-014 -4.17448e-015
rhumerus -37.8027 2.15452 -80.4846
rradius 33.0841
rwrist 8.21472
rhand -15.4527 19.4176
rfingers 7.12502
rthumb 10.7281 -10.2884
lclavicle 6.71519e-014 -4.17448e-015
lhumerus -33.4207 1.93336 85.8573
lradius 45.1374
lwrist 30.6718
lhand -16.8707 56.4757
lfingers 7.12502
lthumb -170.64 -453.752
rfemur 5.299 10.0402 24.0994
rtibia -1.27222e-014
rfoot -8.58824 -17.7557
rtoes -13.3668
lfemur -23.4802 -8.68615 -13.4989
ltibia 26.1963
lfoot -10.0375 18.1924
ltoes -22.37
605
root -11.7143 17.6403 -1.011 3.12745 54.6023 -4.90235
lowerback 5.93822 2.83235 2.10839
upperback -1.33806 3.95872 0.345891
thorax -4.59496 1.90959 -1.20653
lowerneck -21.5422 -6.14272 -6.14994
upperneck 24.2199 -7.86199 4.90685
head 11.9876 -3.41141 1.54847
rclavicle 3.23771e-014 7.39852e-015
rhumerus -37.0919 1.89299 -80.4094
rradius 33.3732
rwrist 9.14417
rhand -15.4247 19.0698
rfingers 7.12502
rthumb 10.7551 -10.6349
lclavicle 3.23771e-014 7.39852e-015
lhumerus -33.3884 3.26398 85.6676
lradius 45.5608
lwrist 31.6967
lhand -17.6312 56.6498
lfingers 7.12502
lthumb -171.374 -453.546
rfemur 4.71175 10.656 24.2141
rtibia 2.22639e-014
rfoot -8.61754 -17.5834
rtoes -11.5543
lfemur -23.7982 -10.0455 -12.7945
ltibia 25.9618
lfoot -9.8702 19.847
ltoes -21.1033
606
root -11.8656 17.6507 -1.02941 3.10923 54.236 -5.04324
lowerback 6.20437 2.91676 2.72626
upperback -1.1756 4.12702 0.411055
thorax -4.53281 1.97925 -1.50791
lowerneck -21.7133 -5.70936 -5.89002
upperneck 23.6958 -7.19983 4.53465
head 11.7472 -3.14739 1.47783
rclavicle -5.64673e-015 -1.799e-014
rhumerus -36.4459 1.80768 -80.3597
rradius 33.8297
rwrist 9.59581
rhand -15.4616 18.6978
rfingers 7.12502
rthumb 10.7195 -11.0087
lclavicle -5.64673e-015 -1.799e-014
lhumerus -33.3356 4.13574 85.616
lradius 45.8286
lwrist 32.8278
lhand -18.3295 57.2539
lfingers 7.12502
lthumb -172.048 -452.916
rfemur 4.02927 11.1888 24.3993
rtibia -4.77083e-015
rfoot -8.55424 -17.4204
rtoes -10.0854
lfemur -24.1828 -11.5513 -11.9073
ltibia 25.707
lfoot -9.84608 21.5358
ltoes -19.2557
607
root -12.0127 17.6593 -1.04366 3.11417 54.0128 -5.29394
lowerback 6.28114 2.94339 3.2982
upperback -1.04512 4.21399 0.545123
thorax -4.40663 2.01322 -1.69484
lowerneck -21.9524 -5.31124 -5.64535
upperneck 23.2857 -6.59843 4.19337
head 11.5761 -2.90347 1.40895
rclavicle 7.62836e-015 -9.74045e-015
rhumerus -35.8548 1.86044 -80.2752
rradius 34.3062
rwrist 9.74582
rhand -15.5056 18.2889
rfingers 7.12502
rthumb 10.6771 -11.4198
lclavicle 7.62836e-015 -9.74045e-015
lhumerus -33.2468 4.48351 85.734
lradius 45.7091
lwrist 33.706
lhand -18.9455 57.587
lfingers 7.12502
lthumb -172.642 -452.561
rfemur 3.21748 11.5928 24.6505
rtibia 4.77083e-015
rfoot -8.18589 -17.3488
rtoes -10.1512
lfemur -24.7367 -13.2024 -10.8637
ltibia 25.4951
lfoot -10.1274 23.1943
ltoes -16.9016
